# xmcd
#
# Track frame offsets: 
#        150
#        13413
#        25940
#        37664
#        51941
#        66814
#        85849
#        95598
#        111782
#        123852
#        136273
#        146610
#        159131
#        169042
#        181523
#        192022
#        202709
#        215625
#
# Disc length: 3085 seconds
#
# Revision: 0
# Processed by: cddbd v1.5.2PL0 Copyright (c) Steve Scherf et al.
# Submitted via: ExactAudioCopy v0.95b4
#
DISCID=e50c0b12
DTITLE=Various Artist - Country Legends - Reflections 2CD (Disc1)
DYEAR=2007
DGENRE=Country
TTITLE0=Kenny Rogers - Ruby, Don't Take Your Love To Town
TTITLE1=Charlie Rich - Behind Closed Doors
TTITLE2=Patsy Cline - Walking After Midnight
TTITLE3=George Jones - A Good Year For The Roses
TTITLE4=Eddie Rabbitt - Drivin' My Life Away
TTITLE5=Juice Newton - Angel Of The Morning
TTITLE6=Merle Haggard - Mama Tried
TTITLE7=Ray Stevens - Everything Is Beautiful
TTITLE8=Jim Reeves - Mexican Joe
TTITLE9=Skeeter Davis - The End Of The World
TTITLE10=Don Gibson - Sea Of Heartbreak
TTITLE11=Glen Campbell - By The Time I Get To Phoenix
TTITLE12=Ned Miller - From A Jack To A King
TTITLE13=Willie Nelson - Shelter Of Your Arms
TTITLE14=George Hamilton IV - Abilene
TTITLE15=Johnny Cash - There You Go
TTITLE16=Johnny Tillotson - It Keeps Right On A Hurtin'
TTITLE17=Billie Jo Spears - Blanket On The Ground
EXTD=
EXTT0=
EXTT1=
EXTT2=
EXTT3=
EXTT4=
EXTT5=
EXTT6=
EXTT7=
EXTT8=
EXTT9=
EXTT10=
EXTT11=
EXTT12=
EXTT13=
EXTT14=
EXTT15=
EXTT16=
EXTT17=
PLAYORDER=
